<?xml version="1.0" standalone="no"?>
<!DOCTYPE svg PUBLIC "-//W3C//DTD SVG 20010904//EN"
 "http://www.w3.org/TR/2001/REC-SVG-20010904/DTD/svg10.dtd">
<svg version="1.0" xmlns="http://www.w3.org/2000/svg"
 width="300.000000pt" height="300.000000pt" viewBox="0 0 300.000000 300.000000"
 preserveAspectRatio="xMidYMid meet">
<metadata>
Created by potrace 1.10, written by Peter Selinger 2001-2011
</metadata>
<g transform="translate(0.000000,300.000000) scale(0.100000,-0.100000)"
fill="#000000" stroke="none">
<path d="M1946 2957 c-33 -20 -56 -41 -56 -50 0 -5 -7 -15 -15 -23 -8 -9 -15
-13 -15 -11 0 3 -24 -18 -52 -45 -29 -28 -52 -52 -51 -54 3 -4 -46 -54 -52
-54 -9 0 -105 -102 -105 -111 0 -6 -5 -7 -10 -4 -6 3 -14 -4 -19 -17 -6 -13
-10 -20 -10 -16 -1 3 -27 -19 -58 -50 -31 -32 -56 -60 -55 -64 1 -5 -2 -8 -7
-8 -12 0 -152 -135 -153 -147 0 -4 -4 -7 -9 -6 -5 2 -9 -4 -9 -13 0 -8 -4 -13
-9 -9 -6 3 -15 -4 -21 -15 -6 -11 -8 -20 -4 -20 13 0 534 525 534 538 0 7 3
11 8 9 4 -3 50 37 102 89 52 52 93 94 90 93 -3 0 -14 -6 -24 -12z"/>
<path d="M770 2951 c0 -7 -4 -9 -10 -6 -5 3 -10 3 -10 -2 0 -14 -66 -83 -73
-76 -4 3 -7 1 -7 -6 0 -14 -25 -42 -32 -35 -3 2 -10 -8 -17 -23 -8 -19 17 1
75 59 49 48 85 90 81 94 -4 4 -7 2 -7 -5z"/>
<path d="M1420 2905 c-30 -30 -52 -57 -49 -60 3 -2 29 20 59 50 30 30 52 57
49 60 -3 2 -29 -20 -59 -50z"/>
<path d="M2344 2889 c-38 -39 -73 -77 -77 -85 -5 -8 -12 -12 -18 -9 -5 4 -9 2
-9 -4 0 -6 -22 -31 -49 -56 -86 -81 -139 -133 -148 -147 -4 -7 -23 -26 -41
-41 -19 -15 -31 -27 -27 -27 3 0 -7 -11 -22 -25 -15 -13 -24 -25 -19 -25 10 0
463 448 477 473 17 30 3 19 -67 -54z"/>
<path d="M166 2934 c-5 -14 -4 -15 9 -4 17 14 19 20 6 20 -5 0 -12 -7 -15 -16z"/>
<path d="M273 2930 c-13 -10 -23 -23 -23 -30 0 -6 -5 -8 -12 -4 -7 5 -8 3 -3
-6 5 -9 16 -4 38 19 35 34 34 49 0 21z"/>
<path d="M288 2833 c-65 -64 -118 -120 -118 -125 0 -4 38 30 84 76 47 46 87
81 90 78 3 -3 6 0 6 6 0 7 17 28 37 47 20 19 33 35 29 35 -5 0 -62 -53 -128
-117z"/>
<path d="M515 2940 c-3 -5 -2 -10 4 -10 5 0 13 5 16 10 3 6 2 10 -4 10 -5 0
-13 -4 -16 -10z"/>
<path d="M625 2925 c-11 -13 -26 -24 -32 -25 -7 0 -13 -4 -13 -9 0 -4 -113
-120 -250 -257 -214 -213 -291 -294 -278 -294 2 0 140 137 308 305 167 168
300 305 295 305 -6 0 -19 -11 -30 -25z"/>
<path d="M774 2848 c-57 -56 -102 -103 -100 -105 2 -3 52 43 110 101 58 58
103 106 99 106 -3 0 -52 -46 -109 -102z"/>
<path d="M985 2940 c-3 -5 -1 -10 4 -10 6 0 11 5 11 10 0 6 -2 10 -4 10 -3 0
-8 -4 -11 -10z"/>
<path d="M1096 2928 c-9 -12 -16 -19 -16 -16 0 4 -13 -6 -30 -22 -16 -16 -30
-35 -30 -41 0 -7 -3 -10 -6 -6 -7 7 -94 -82 -94 -96 0 -6 -3 -7 -6 -4 -6 6
-64 -59 -64 -72 0 -3 63 58 140 134 77 77 140 141 140 142 0 11 -22 -1 -34
-19z"/>
<path d="M1045 2769 c-99 -100 -170 -175 -157 -168 12 8 22 17 22 22 0 4 5 5
10 2 6 -4 9 -2 8 2 -4 13 84 99 97 95 5 -2 7 0 3 3 -8 8 133 155 148 155 5 0
22 16 37 35 59 75 6 28 -168 -146z"/>
<path d="M1329 2933 c-13 -15 -12 -15 9 -4 23 12 28 21 13 21 -5 0 -15 -7 -22
-17z"/>
<path d="M1575 2942 c-5 -4 -27 -26 -47 -49 -20 -23 -39 -39 -41 -36 -3 2 -8
-5 -12 -16 -3 -12 -11 -19 -16 -16 -5 4 -9 2 -9 -2 0 -5 -12 -21 -26 -36 -14
-16 -24 -30 -22 -32 2 -3 49 41 103 95 55 55 95 100 90 100 -6 0 -14 -4 -20
-8z"/>
<path d="M1806 2934 c-5 -14 -4 -15 9 -4 17 14 19 20 6 20 -5 0 -12 -7 -15
-16z"/>
<path d="M1955 2860 c-49 -49 -87 -90 -83 -90 4 0 48 41 99 90 50 50 88 90 83
90 -5 0 -50 -40 -99 -90z"/>
<path d="M2280 2939 c0 -5 5 -7 10 -4 6 3 10 8 10 11 0 2 -4 4 -10 4 -5 0 -10
-5 -10 -11z"/>
<path d="M2348 2783 c-92 -92 -168 -174 -167 -183 0 -8 4 -5 10 8 5 13 18 26
29 29 11 3 17 9 14 14 -3 5 4 13 15 17 11 4 20 11 20 15 0 14 58 66 66 59 5
-4 5 -2 1 5 -3 7 2 14 14 18 11 4 18 10 15 15 -3 5 3 11 12 14 10 3 23 16 28
28 6 13 16 22 23 21 7 -2 12 3 12 10 0 17 42 57 60 57 7 0 10 3 7 7 -4 3 1 12
11 19 9 7 13 14 8 14 -5 0 -85 -75 -178 -167z"/>
<path d="M2750 2940 c0 -5 -7 -10 -15 -10 -8 0 -15 -3 -15 -8 0 -9 -150 -162
-160 -162 -3 0 -7 -7 -7 -15 0 -9 49 33 109 92 59 59 108 109 108 110 0 2 -4
3 -10 3 -5 0 -10 -4 -10 -10z"/>
<path d="M2125 2910 c-16 -16 -25 -30 -19 -29 8 0 60 59 52 59 -3 0 -17 -13
-33 -30z"/>
<path d="M2809 2892 c-24 -25 -32 -37 -18 -24 14 12 29 19 34 15 4 -5 5 -3 1
4 -3 6 3 18 16 27 12 9 20 18 17 21 -3 2 -25 -17 -50 -43z"/>
<path d="M1670 2920 c-13 -8 -12 -10 3 -10 9 0 17 5 17 10 0 12 -1 12 -20 0z"/>
<path d="M2256 2913 c-6 -14 -5 -15 5 -6 7 7 10 15 7 18 -3 3 -9 -2 -12 -12z"/>
<path d="M2895 2860 c-27 -27 -47 -51 -44 -53 2 -2 28 20 58 50 29 29 50 53
44 53 -5 0 -31 -22 -58 -50z"/>
<path d="M925 2878 l-20 -21 23 12 c12 6 22 16 22 21 0 13 -2 12 -25 -12z"/>
<path d="M1608 2863 c-25 -25 -28 -33 -15 -33 10 0 22 11 27 25 5 14 16 25 24
25 8 0 17 4 20 8 14 23 -27 4 -56 -25z"/>
<path d="M2214 2876 c-11 -12 -24 -28 -29 -36 -4 -8 7 -1 26 17 18 18 31 34
28 36 -2 2 -13 -6 -25 -17z"/>
<path d="M445 2870 c-10 -11 -14 -20 -9 -20 5 0 15 9 22 20 7 11 11 20 9 20
-2 0 -12 -9 -22 -20z"/>
<path d="M187 2843 c-15 -21 -27 -35 -27 -31 0 4 -11 -4 -25 -18 -14 -14 -25
-29 -25 -35 0 -6 -5 -7 -10 -4 -5 3 -10 -2 -10 -12 0 -12 20 3 66 48 37 37 65
72 62 79 -2 6 -16 -5 -31 -27z"/>
<path d="M2055 2840 c-16 -16 -26 -30 -22 -30 7 0 57 48 57 55 0 9 -7 5 -35
-25z"/>
<path d="M56 2823 c-6 -14 -5 -15 5 -6 7 7 10 15 7 18 -3 3 -9 -2 -12 -12z"/>
<path d="M1165 2650 c-103 -105 -186 -192 -184 -195 3 -2 90 81 194 185 104
105 186 192 184 194 -3 3 -90 -80 -194 -184z"/>
<path d="M2420 2504 c-184 -185 -328 -333 -321 -328 8 4 31 25 50 45 19 21 38
36 43 33 5 -3 7 -2 6 3 -4 10 38 53 46 47 3 -2 4 -2 2 1 -5 8 221 235 233 235
5 0 11 9 14 20 3 11 16 24 29 29 12 4 22 11 20 15 -2 4 11 20 28 36 16 15 30
25 30 22 0 -4 9 8 20 26 13 21 25 30 33 26 6 -4 9 -4 5 0 -3 4 20 34 53 67 32
32 56 59 51 59 -4 0 -158 -151 -342 -336z"/>
<path d="M1220 2819 c0 -5 5 -7 10 -4 6 3 10 8 10 11 0 2 -4 4 -10 4 -5 0 -10
-5 -10 -11z"/>
<path d="M1554 2804 c-18 -14 -18 -14 6 -3 31 14 36 19 24 19 -6 0 -19 -7 -30
-16z"/>
<path d="M1665 2800 c-3 -6 1 -7 9 -4 18 7 21 14 7 14 -6 0 -13 -4 -16 -10z"/>
<path d="M2128 2791 c-8 -12 -18 -18 -23 -13 -5 4 -5 1 0 -7 6 -10 12 -9 28 8
12 11 18 23 15 26 -3 4 -12 -3 -20 -14z"/>
<path d="M1935 2718 c-44 -45 -69 -73 -55 -63 40 32 152 145 143 145 -5 0 -44
-37 -88 -82z"/>
<path d="M2500 2465 c-184 -184 -330 -335 -325 -335 6 0 21 14 34 30 13 16 28
27 35 23 6 -3 8 -2 3 2 -9 10 142 165 162 165 8 0 11 3 8 7 -8 7 51 63 66 63
6 0 8 3 4 6 -3 3 75 87 174 186 99 99 179 182 177 184 -2 1 -154 -148 -338
-331z"/>
<path d="M2932 2777 c-12 -13 -22 -27 -22 -32 0 -4 11 4 25 19 23 25 30 36 22
36 -2 0 -13 -10 -25 -23z"/>
<path d="M580 2772 c0 -5 -24 -32 -52 -61 -29 -28 -48 -51 -42 -51 18 0 117
107 105 114 -6 4 -11 3 -11 -2z"/>
<path d="M1467 2722 c-36 -37 -52 -59 -42 -59 9 0 23 13 31 29 9 17 20 26 26
22 6 -4 8 -3 5 3 -6 10 15 31 49 51 15 9 15 11 4 12 -9 0 -42 -26 -73 -58z"/>
<path d="M1159 2753 c-13 -16 -12 -17 4 -4 9 7 17 15 17 17 0 8 -8 3 -21 -13z"/>
<path d="M1625 2760 c-3 -5 -1 -10 4 -10 6 0 11 5 11 10 0 6 -2 10 -4 10 -3 0
-8 -4 -11 -10z"/>
<path d="M1652 2557 c-111 -111 -202 -206 -202 -212 0 -5 23 15 52 45 29 30
57 53 63 52 5 -2 7 -1 3 3 -6 6 46 65 57 65 2 0 15 11 29 25 14 14 23 25 20
25 -3 0 6 11 20 25 14 14 30 25 36 25 5 0 10 4 10 10 0 5 30 39 66 75 36 36
62 65 57 65 -4 0 -99 -91 -211 -203z"/>
<path d="M2086 2743 c-6 -14 -5 -15 5 -6 7 7 10 15 7 18 -3 3 -9 -2 -12 -12z"/>
<path d="M1360 2725 c-13 -14 -21 -27 -18 -30 2 -3 15 6 28 20 13 14 21 27 18
30 -2 3 -15 -6 -28 -20z"/>
<path d="M1109 2713 l-24 -26 27 19 c15 10 28 22 28 27 0 12 -5 8 -31 -20z"/>
<path d="M1589 2723 c-13 -16 -12 -17 4 -4 16 13 21 21 13 21 -2 0 -10 -8 -17
-17z"/>
<path d="M60 2715 c-7 -9 -11 -18 -8 -20 3 -3 11 1 18 10 7 9 11 18 8 20 -3 3
-11 -1 -18 -10z"/>
<path d="M352 2427 c-166 -167 -302 -307 -302 -312 1 -6 9 0 19 12 10 12 22
19 26 15 3 -4 5 -2 3 3 -4 13 254 275 270 275 7 0 11 4 9 8 -2 10 170 181 178
176 3 -2 3 -1 1 2 -2 3 21 30 50 61 30 31 53 57 51 59 -2 2 -139 -133 -305
-299z"/>
<path d="M2454 2652 c-43 -43 -98 -100 -121 -125 -24 -26 -43 -45 -43 -42 0 2
-11 -6 -25 -19 -14 -13 -25 -29 -25 -35 0 -7 -3 -10 -7 -8 -5 3 -21 -12 -37
-32 -17 -20 -49 -53 -73 -73 -24 -20 -39 -39 -35 -42 10 -6 458 441 451 449
-3 3 -41 -30 -85 -73z"/>
<path d="M2044 2705 c-10 -8 -14 -15 -8 -15 6 0 17 7 24 15 16 19 9 19 -16 0z"/>
<path d="M109 2652 c-25 -26 -52 -56 -60 -66 -13 -18 -13 -18 8 -5 12 7 20 15
17 18 -2 3 17 24 42 48 26 24 46 45 43 47 -2 2 -25 -17 -50 -42z"/>
<path d="M270 2690 c-9 -6 -10 -10 -3 -10 6 0 15 5 18 10 8 12 4 12 -15 0z"/>
<path d="M1312 2688 c-14 -14 -16 -42 -3 -34 7 5 23 46 17 46 -1 0 -7 -5 -14
-12z"/>
<path d="M2836 2673 c-6 -14 -5 -15 5 -6 7 7 10 15 7 18 -3 3 -9 -2 -12 -12z"/>
<path d="M793 2631 c-24 -24 -43 -48 -43 -54 0 -6 -3 -8 -6 -4 -7 7 -44 -29
-44 -44 0 -6 32 21 71 59 39 38 70 73 68 78 -2 5 -23 -11 -46 -35z"/>
<path d="M2010 2669 c0 -5 5 -7 10 -4 6 3 10 8 10 11 0 2 -4 4 -10 4 -5 0 -10
-5 -10 -11z"/>
<path d="M2940 2672 c0 -11 -134 -147 -165 -168 -14 -9 -25 -23 -25 -32 0 -8
43 27 96 79 96 95 124 129 104 129 -5 0 -10 -4 -10 -8z"/>
<path d="M2345 2660 c-3 -5 -1 -10 4 -10 6 0 11 5 11 10 0 6 -2 10 -4 10 -3 0
-8 -4 -11 -10z"/>
<path d="M445 2630 c-11 -16 -23 -26 -27 -24 -4 3 -8 -2 -8 -11 0 -9 -4 -13
-10 -10 -5 3 -10 2 -10 -3 0 -5 -9 -19 -20 -32 -11 -13 -20 -21 -20 -18 0 3
-36 -31 -80 -76 -44 -44 -80 -84 -80 -89 0 -4 -6 -5 -12 -1 -7 4 -10 4 -6 -1
4 -4 -2 -16 -14 -27 -12 -10 -19 -20 -17 -22 2 -2 80 71 172 164 93 92 164
170 160 173 -5 3 -17 -7 -28 -23z"/>
<path d="M1255 2620 c-16 -21 -32 -37 -35 -36 -3 1 -19 -13 -37 -31 -17 -18
-30 -33 -28 -33 2 0 -18 -21 -45 -47 -28 -26 -50 -52 -50 -58 0 -12 207 192
221 218 18 33 5 26 -26 -13z"/>
<path d="M1342 2595 c-29 -30 -50 -55 -45 -55 13 0 79 63 86 83 4 10 11 16 16
12 5 -3 12 -1 16 5 3 5 0 10 -7 10 -7 0 -37 -25 -66 -55z"/>
<path d="M1980 2640 c-8 -5 -12 -12 -9 -15 4 -3 12 1 19 10 14 17 11 19 -10 5z"/>
<path d="M1505 2632 c-5 -4 -17 -16 -25 -27 -11 -15 -7 -14 13 4 24 22 32 31
25 31 -2 0 -7 -4 -13 -8z"/>
<path d="M201 2621 c-8 -5 -9 -11 -3 -15 5 -3 12 1 16 9 6 17 6 18 -13 6z"/>
<path d="M654 2598 l-19 -23 23 19 c21 18 27 26 19 26 -2 0 -12 -10 -23 -22z"/>
<path d="M1939 2601 c-29 -30 -33 -46 -4 -18 15 15 26 29 24 31 -2 2 -11 -4
-20 -13z"/>
<path d="M1777 2562 c-26 -26 -47 -51 -47 -55 0 -7 62 54 92 91 24 28 -1 9
-45 -36z"/>
<path d="M2281 2587 c-13 -21 -12 -21 5 -5 10 10 16 20 13 22 -3 3 -11 -5 -18
-17z"/>
<path d="M2155 2591 c-3 -5 -2 -12 3 -15 5 -3 9 1 9 9 0 17 -3 19 -12 6z"/>
<path d="M819 2543 l-34 -38 40 35 c22 19 42 36 44 38 2 1 0 2 -5 2 -6 0 -26
-17 -45 -37z"/>
<path d="M1882 2542 c-11 -25 -11 -25 4 -10 9 9 15 21 13 27 -2 6 -10 -2 -17
-17z"/>
<path d="M2080 2515 c-42 -42 -48 -52 -27 -43 15 7 27 19 27 26 0 7 5 10 12 6
6 -4 8 -3 4 4 -3 6 2 17 12 24 17 12 37 38 30 38 -2 0 -28 -25 -58 -55z"/>
<path d="M2720 2560 c-9 -6 -10 -10 -3 -10 6 0 15 5 18 10 8 12 4 12 -15 0z"/>
<path d="M939 2543 c-13 -16 -12 -17 4 -4 9 7 17 15 17 17 0 8 -8 3 -21 -13z"/>
<path d="M2425 2039 c-286 -287 -510 -516 -497 -510 12 7 22 16 22 21 0 6 7
10 15 10 8 0 15 7 15 15 0 9 8 18 18 22 17 6 57 43 57 52 0 3 10 16 23 30 12
13 22 22 22 19 0 -3 16 9 35 28 19 18 35 38 35 44 0 6 11 15 25 20 14 5 25 13
25 18 0 11 60 77 68 75 4 0 13 5 20 13 7 8 10 14 7 14 -2 0 3 9 12 19 9 11 21
18 25 14 5 -3 12 4 15 16 3 12 12 21 19 21 8 0 14 7 14 16 0 9 5 12 13 8 6 -4
9 -4 5 0 -8 9 56 76 72 76 5 0 10 4 10 10 0 15 32 50 41 44 4 -2 10 5 14 16 4
11 11 17 17 14 6 -4 8 -2 5 3 -4 6 9 20 29 32 19 12 33 24 31 29 -2 4 10 20
27 37 17 16 31 27 32 25 1 -7 30 23 34 35 3 6 18 19 35 30 16 12 29 24 28 28
-4 10 34 47 48 47 5 0 7 5 4 10 -3 6 1 10 10 10 8 0 19 8 22 17 4 10 24 35 44
55 21 21 34 38 31 38 -4 0 -241 -234 -527 -521z"/>
<path d="M2215 2529 c-4 -6 -5 -12 -2 -15 2 -3 7 2 10 11 7 17 1 20 -8 4z"/>
<path d="M2685 2530 c-3 -5 -1 -10 4 -10 6 0 11 5 11 10 0 6 -2 10 -4 10 -3 0
-8 -4 -11 -10z"/>
<path d="M791 2046 c-328 -328 -479 -486 -470 -491 7 -5 10 -4 6 2 -8 13 17
36 28 25 5 -4 5 -2 1 5 -4 7 6 19 24 29 16 10 30 24 30 32 0 7 4 11 9 8 5 -3
11 4 14 15 3 12 10 18 16 14 6 -3 11 -1 11 5 0 15 26 41 33 33 4 -3 12 6 18
21 7 14 18 26 26 26 7 0 13 6 13 13 0 8 12 19 26 25 14 7 22 17 19 22 -3 6 1
10 9 10 9 0 15 3 13 8 -1 4 8 17 21 30 12 12 22 19 22 15 0 -5 9 7 20 25 11
18 25 30 30 27 6 -3 10 1 10 9 0 9 5 15 12 14 7 -2 12 4 13 12 1 8 7 14 14 12
7 -1 10 2 7 7 -6 9 22 38 33 34 3 -2 6 0 6 5 0 16 17 32 27 26 7 -4 8 -2 4 5
-4 7 2 15 16 20 13 6 19 10 14 10 -5 1 -1 10 9 21 10 11 22 17 28 13 5 -3 7
-1 4 4 -8 13 17 36 28 25 5 -4 5 -2 2 4 -4 7 0 17 8 24 8 7 15 9 15 4 0 -4 6
-2 13 5 6 6 12 17 12 24 0 7 7 12 15 12 8 0 15 5 15 10 0 17 16 36 26 30 5 -4
9 1 9 9 0 9 5 15 12 13 7 -1 12 3 13 8 1 20 17 35 28 29 7 -4 9 -4 6 0 -7 8
52 72 63 68 4 -1 10 7 13 18 4 12 11 17 18 14 7 -4 9 -4 5 1 -7 8 16 36 29 35
4 -1 11 8 15 20 4 12 12 19 17 16 5 -3 11 1 15 9 3 8 2 15 -2 15 -4 0 -225
-218 -491 -484z"/>
<path d="M660 2501 c-16 -30 -12 -36 10 -16 21 19 26 35 10 35 -5 0 -14 -9
-20 -19z"/>
<path d="M1845 2510 c-3 -5 -1 -10 4 -10 6 0 11 5 11 10 0 6 -2 10 -4 10 -3 0
-8 -4 -11 -10z"/>
<path d="M2654 2496 c-10 -8 -17 -16 -14 -19 3 -2 14 4 24 14 23 22 18 25 -10
5z"/>
<path d="M60 2485 c-7 -9 -11 -17 -9 -20 3 -2 10 5 17 15 14 24 10 26 -8 5z"/>
<path d="M475 2200 c-165 -165 -296 -300 -291 -300 4 0 59 52 122 115 63 63
119 115 126 115 6 0 8 3 5 7 -4 3 74 86 173 185 99 98 177 178 172 178 -4 0
-142 -135 -307 -300z"/>
<path d="M631 2467 c-1 -10 -5 -15 -11 -12 -5 3 -10 -1 -10 -10 0 -9 -4 -13
-10 -10 -5 3 -10 -2 -10 -12 0 -15 4 -13 26 9 15 14 24 32 21 39 -4 10 -6 8
-6 -4z"/>
<path d="M1686 2435 c-33 -13 -77 -41 -98 -62 -37 -37 -88 -126 -88 -156 0 -9
-13 -16 -35 -19 -33 -4 -34 -3 -37 37 -3 38 -5 40 -40 43 -47 4 -73 -10 -94
-49 -27 -54 5 -119 68 -134 41 -10 68 10 68 50 0 32 2 35 31 35 20 0 29 -4 26
-12 -3 -7 -18 -61 -33 -120 l-29 -108 -32 0 c-30 0 -32 3 -35 38 -3 36 -4 37
-44 40 -49 4 -80 -18 -93 -65 -19 -65 49 -137 108 -117 21 8 27 17 29 47 3 34
6 37 33 37 24 0 29 -4 25 -17 -2 -10 -17 -64 -32 -120 l-27 -103 -33 0 c-31 0
-33 2 -36 38 -3 36 -5 37 -44 40 -102 8 -134 -134 -38 -174 19 -8 45 -12 59
-8 21 5 25 12 25 45 0 37 2 39 30 39 17 0 30 -3 30 -7 -1 -5 -14 -57 -29 -118
l-29 -110 -37 -3 -36 -3 6 34 c8 40 -1 49 -52 50 -28 1 -42 -6 -64 -31 -36
-40 -37 -80 -4 -120 29 -34 63 -46 97 -33 21 8 24 14 20 45 -4 35 -3 36 30 36
l35 0 -32 -117 c-32 -117 -33 -118 -64 -121 -29 -3 -31 -2 -31 32 0 92 -131
59 -147 -37 -5 -31 -1 -40 26 -67 26 -27 37 -31 73 -28 42 3 43 4 46 40 3 34
6 38 31 38 l28 0 -31 -120 -31 -120 -32 0 c-30 0 -32 3 -35 37 -2 30 -8 39
-29 47 -37 13 -80 -11 -102 -56 -16 -33 -17 -40 -3 -71 18 -43 45 -59 94 -55
35 3 37 5 40 41 3 34 6 37 33 37 24 0 29 -4 25 -17 -22 -72 -56 -212 -56 -231
0 -14 20 -45 52 -78 63 -67 66 -81 67 -361 l1 -193 30 0 30 0 0 205 0 205 -30
0 c-25 0 -30 4 -30 25 0 21 5 25 30 25 l30 0 0 159 c0 88 3 166 6 175 4 10 -5
20 -25 31 -80 41 -27 170 58 139 l29 -12 4 60 c3 55 1 60 -22 71 -51 25 -51
107 1 136 30 17 84 8 76 -13 -3 -7 -2 -18 3 -25 4 -7 8 22 9 65 2 75 1 77 -30
104 -43 35 -45 83 -5 117 32 27 53 29 84 7 l22 -15 0 66 c0 60 -2 66 -23 74
-13 5 -30 24 -37 42 -12 27 -11 36 1 58 8 14 27 32 42 41 25 14 30 13 57 -2
l30 -17 0 64 c0 39 -4 65 -10 65 -6 0 -22 11 -35 25 -30 29 -32 73 -5 102 28
31 56 37 90 19 l30 -14 0 64 c0 46 -4 64 -13 64 -23 0 -57 45 -57 74 0 39 15
61 49 75 82 35 141 -84 66 -133 l-30 -20 2 -95 c1 -53 3 -423 3 -823 l0 -728
30 0 c25 0 30 -4 30 -25 0 -21 -5 -25 -30 -25 l-30 0 0 -205 0 -205 29 0 28 0
6 258 c6 277 16 341 63 434 34 67 110 146 190 199 l64 41 0 54 c0 80 -24 179
-95 392 -75 224 -91 284 -101 368 -10 91 5 122 107 229 96 102 120 145 121
220 1 79 -21 134 -72 186 -80 80 -185 99 -294 54z m195 -17 c86 -29 138 -101
145 -200 7 -81 -17 -127 -118 -231 -45 -45 -87 -96 -94 -114 -37 -86 -5 -248
110 -568 14 -38 27 -82 30 -97 2 -15 7 -31 10 -36 14 -24 37 -202 28 -219 -4
-6 -34 -31 -67 -55 -61 -46 -145 -122 -145 -132 0 -4 -11 -24 -25 -46 -27 -42
-49 -101 -60 -160 -11 -56 -16 -71 -24 -65 -5 2 -9 361 -10 797 l-2 792 30 30
c34 36 41 69 23 112 -14 32 -58 64 -89 64 -10 0 -33 -9 -50 -20 -38 -23 -41
-18 -12 29 29 48 76 90 124 112 46 21 145 25 196 7z m-492 -167 c14 -9 19
-100 7 -120 -19 -31 -86 15 -86 59 0 19 9 36 26 49 30 23 33 24 53 12z m180
-143 c15 -11 21 -24 19 -47 -2 -26 -6 -31 -29 -31 -15 0 -41 -12 -58 -26 l-31
-26 5 39 c3 21 11 64 20 96 8 31 14 61 14 65 -4 27 4 21 20 -14 10 -23 28 -48
40 -56z m-233 -146 c1 -15 0 -44 -3 -65 -4 -32 -8 -37 -28 -34 -13 1 -33 11
-44 21 -34 31 -11 102 36 108 35 4 36 4 39 -30z m124 -52 c0 -10 13 -32 29
-49 28 -29 35 -48 32 -77 0 -6 -19 -14 -41 -18 -22 -3 -48 -15 -57 -26 -10
-11 -21 -20 -25 -20 -3 0 5 41 18 92 14 51 23 97 20 104 -3 7 -2 15 1 18 10 9
23 -4 23 -24z m-200 -196 c6 -14 10 -42 10 -63 0 -33 -4 -39 -25 -43 -34 -7
-62 15 -67 52 -4 25 1 36 24 56 37 30 46 30 58 -2z m130 -57 c0 -13 16 -40 35
-61 52 -58 48 -79 -19 -90 -16 -3 -39 -15 -52 -27 -30 -28 -31 -17 -4 76 11
38 20 82 20 97 0 16 5 28 10 28 6 0 10 -10 10 -23z m-190 -217 c9 -53 -6 -100
-30 -97 -59 9 -79 80 -33 117 36 28 57 22 63 -20z m123 -34 c-4 -17 5 -35 31
-64 22 -24 36 -50 36 -66 0 -24 -4 -26 -39 -26 -22 0 -44 -6 -51 -15 -29 -34
-33 2 -11 84 7 24 14 55 16 70 1 14 3 29 4 34 0 4 5 7 10 7 4 0 6 -11 4 -24z
m-198 -211 c1 -11 3 -25 7 -30 12 -20 -4 -73 -23 -78 -28 -7 -69 29 -69 61 0
32 8 45 35 60 28 16 50 10 50 -13z m171 -126 c35 -37 30 -73 -11 -77 -16 -2
-45 -15 -64 -29 -29 -22 -32 -23 -27 -7 18 62 46 173 45 181 -5 27 4 23 17 -7
8 -19 26 -47 40 -61z m-231 -141 c10 -61 1 -93 -28 -96 -30 -4 -67 28 -67 57
0 29 39 71 65 71 19 0 25 -6 30 -32z m166 -119 c17 -9 19 -23 19 -159 0 -157
-8 -187 -39 -139 -9 13 -29 37 -44 53 -58 59 -58 61 -31 166 14 52 27 111 29
130 2 19 4 37 5 40 1 3 10 -14 22 -38 11 -23 29 -47 39 -53z m446 -481 c-3 -8
-6 -5 -6 6 -1 11 2 17 5 13 3 -3 4 -12 1 -19z m3 -103 c0 -8 -4 -15 -10 -15
-5 0 -7 7 -4 15 4 8 8 15 10 15 2 0 4 -7 4 -15z m-443 -97 c-3 -8 -6 -5 -6 6
-1 11 2 17 5 13 3 -3 4 -12 1 -19z m440 -30 c-3 -8 -6 -5 -6 6 -1 11 2 17 5
13 3 -3 4 -12 1 -19z m3 -78 c0 -5 -5 -10 -11 -10 -5 0 -7 5 -4 10 3 6 8 10
11 10 2 0 4 -4 4 -10z"/>
<path d="M2673 2399 c-33 -32 -58 -61 -54 -64 9 -5 127 112 120 119 -2 3 -32
-22 -66 -55z"/>
<path d="M903 2387 c-34 -34 -67 -67 -75 -74 -7 -6 -48 -48 -92 -92 -43 -45
-82 -81 -87 -81 -5 0 -8 -3 -7 -7 1 -5 -133 -142 -297 -305 -164 -164 -296
-300 -294 -302 3 -3 211 202 464 454 252 253 456 462 454 465 -3 3 -33 -23
-66 -58z"/>
<path d="M1999 2433 c-12 -16 -12 -17 2 -6 9 7 18 10 21 7 3 -3 9 -1 13 5 11
18 -22 12 -36 -6z"/>
<path d="M1299 2423 c-13 -16 -12 -17 4 -4 9 7 17 15 17 17 0 8 -8 3 -21 -13z"/>
<path d="M2584 2424 c-18 -14 -18 -15 4 -4 12 6 22 13 22 15 0 8 -5 6 -26 -11z"/>
<path d="M2940 2429 c0 -5 5 -7 10 -4 6 3 10 8 10 11 0 2 -4 4 -10 4 -5 0 -10
-5 -10 -11z"/>
<path d="M816 2414 c-5 -14 -4 -15 9 -4 17 14 19 20 6 20 -5 0 -12 -7 -15 -16z"/>
<path d="M570 2418 c-2 -5 -3 -12 -4 -18 0 -5 -5 -11 -11 -12 -16 -5 -115
-107 -115 -120 0 -6 -3 -9 -6 -5 -7 6 -36 -21 -59 -57 -10 -14 -22 -26 -27
-26 -9 0 -79 -69 -145 -143 -17 -20 -34 -33 -37 -29 -4 3 -9 -4 -13 -16 -3
-12 -9 -20 -13 -17 -4 3 -15 -6 -24 -20 -9 -14 -13 -25 -9 -25 18 0 475 469
470 482 -3 7 -6 10 -7 6z"/>
<path d="M967 2335 c-43 -44 -104 -108 -137 -141 -32 -34 -61 -59 -64 -56 -3
3 -6 -3 -6 -14 0 -13 47 28 146 128 80 80 145 150 143 155 -2 4 -39 -28 -82
-72z"/>
<path d="M787 2393 c-4 -3 -7 -11 -7 -17 0 -6 5 -5 12 2 6 6 9 14 7 17 -3 3
-9 2 -12 -2z"/>
<path d="M1220 2349 c0 -5 5 -7 10 -4 6 3 10 8 10 11 0 2 -4 4 -10 4 -5 0 -10
-5 -10 -11z"/>
<path d="M2465 2310 c-66 -67 -54 -69 14 -3 30 29 50 53 45 53 -5 0 -32 -22
-59 -50z"/>
<path d="M2860 2349 c0 -5 5 -7 10 -4 6 3 10 8 10 11 0 2 -4 4 -10 4 -5 0 -10
-5 -10 -11z"/>
<path d="M1425 2330 c-3 -5 -1 -10 4 -10 6 0 11 5 11 10 0 6 -2 10 -4 10 -3 0
-8 -4 -11 -10z"/>
<path d="M715 2320 c-3 -6 1 -7 9 -4 18 7 21 14 7 14 -6 0 -13 -4 -16 -10z"/>
<path d="M2585 2321 c-3 -5 -1 -12 4 -15 5 -3 11 1 15 9 6 16 -9 21 -19 6z"/>
<path d="M2938 2310 c-7 -11 -18 -20 -24 -20 -6 0 -17 -11 -24 -25 -7 -13 -18
-22 -23 -18 -6 3 -7 1 -3 -5 4 -7 3 -12 -3 -12 -5 0 -31 -23 -58 -51 -26 -28
-74 -76 -106 -107 -32 -32 -84 -83 -115 -116 -155 -159 -218 -220 -224 -218
-5 1 -8 -2 -8 -7 0 -12 -80 -91 -92 -91 -4 0 -7 -3 -5 -8 2 -6 -54 -65 -78
-80 -5 -4 -36 -35 -67 -69 -32 -34 -58 -59 -58 -57 0 3 -16 -12 -35 -33 -19
-21 -35 -42 -35 -48 0 -12 956 941 971 968 13 24 2 22 -13 -3z"/>
<path d="M110 2291 c0 -7 -3 -10 -7 -8 -5 2 -21 -11 -36 -29 -16 -19 -25 -34
-20 -34 14 0 77 69 70 77 -4 3 -7 1 -7 -6z"/>
<path d="M2565 2292 c-6 -4 -31 -30 -57 -58 -26 -29 -49 -50 -51 -47 -3 2 -8
-5 -12 -16 -3 -12 -11 -19 -16 -16 -5 4 -9 2 -9 -4 0 -13 -129 -139 -135 -133
-3 3 -5 -3 -5 -13 0 -13 51 32 152 133 84 83 150 153 147 156 -2 3 -9 2 -14
-2z"/>
<path d="M2796 2283 c-6 -14 -5 -15 5 -6 7 7 10 15 7 18 -3 3 -9 -2 -12 -12z"/>
<path d="M645 2250 c-3 -5 -1 -10 4 -10 6 0 11 5 11 10 0 6 -2 10 -4 10 -3 0
-8 -4 -11 -10z"/>
<path d="M1213 2233 c4 -5 -5 -16 -18 -23 -14 -7 -25 -20 -25 -27 0 -8 -5 -11
-10 -8 -6 3 -13 -1 -16 -10 -12 -30 2 -24 45 19 30 31 39 46 30 51 -7 5 -10 4
-6 -2z"/>
<path d="M1085 2220 c-3 -5 -2 -10 4 -10 5 0 13 5 16 10 3 6 2 10 -4 10 -5 0
-13 -4 -16 -10z"/>
<path d="M2935 2199 c-11 -16 -1 -19 13 -3 7 8 8 14 3 14 -5 0 -13 -5 -16 -11z"/>
<path d="M2907 2173 c-10 -9 -9 -23 1 -23 5 0 9 7 9 15 0 17 -1 18 -10 8z"/>
<path d="M2314 2156 c-10 -8 -17 -16 -14 -19 3 -2 14 4 24 14 23 22 18 25 -10
5z"/>
<path d="M1092 2115 c-17 -21 -32 -41 -32 -47 0 -5 -5 -6 -12 -2 -6 4 -9 3 -6
-2 5 -10 -28 -45 -35 -37 -3 2 -8 -5 -12 -16 -3 -12 -11 -19 -16 -16 -5 4 -13
-4 -18 -17 -6 -13 -10 -19 -10 -13 -1 13 -61 -53 -61 -67 0 -6 -3 -9 -6 -5 -7
7 -50 -35 -46 -45 1 -5 -4 -8 -12 -8 -8 0 -23 -15 -35 -32 -11 -18 -21 -29
-21 -25 0 12 -50 -44 -50 -57 0 -6 93 82 206 195 114 114 205 212 203 218 -3
7 -19 -4 -37 -24z"/>
<path d="M1095 1998 c-83 -84 -139 -143 -126 -133 38 31 282 277 278 281 -1 2
-70 -65 -152 -148z"/>
<path d="M2871 2136 c-7 -8 -8 -17 -3 -20 6 -3 15 1 21 8 7 8 8 17 3 20 -6 3
-15 -1 -21 -8z"/>
<path d="M701 2069 c-24 -27 -42 -52 -39 -54 7 -7 88 81 88 95 0 14 1 14 -49
-41z"/>
<path d="M2082 2047 c-39 -40 -72 -77 -72 -82 0 -6 12 5 26 23 14 18 30 30 35
27 5 -4 9 0 9 7 0 7 21 32 47 55 26 24 43 43 37 43 -5 0 -42 -33 -82 -73z"/>
<path d="M2835 2099 c-10 -15 3 -25 16 -12 7 7 7 13 1 17 -6 3 -14 1 -17 -5z"/>
<path d="M477 2083 c-4 -3 -7 -11 -7 -17 0 -6 5 -5 12 2 6 6 9 14 7 17 -3 3
-9 2 -12 -2z"/>
<path d="M2586 2073 c-6 -14 -5 -15 5 -6 7 7 10 15 7 18 -3 3 -9 -2 -12 -12z"/>
<path d="M2668 1813 c-153 -153 -278 -280 -278 -284 0 -4 50 43 112 105 62 61
116 110 120 108 4 -1 8 3 8 9 0 7 74 85 165 175 91 90 162 164 158 164 -4 0
-132 -125 -285 -277z"/>
<path d="M2787 2052 c-29 -30 -33 -42 -17 -42 6 0 9 6 8 13 -2 6 2 11 8 10 16
-3 48 34 36 41 -5 3 -21 -7 -35 -22z m33 14 c0 -2 -8 -10 -17 -17 -16 -13 -17
-12 -4 4 13 16 21 21 21 13z"/>
<path d="M440 2039 c0 -5 5 -7 10 -4 6 3 10 8 10 11 0 2 -4 4 -10 4 -5 0 -10
-5 -10 -11z"/>
<path d="M2175 2020 c-3 -5 -1 -10 4 -10 6 0 11 5 11 10 0 6 -2 10 -4 10 -3 0
-8 -4 -11 -10z"/>
<path d="M636 2003 c-4 -13 -11 -23 -16 -23 -5 0 -14 -10 -21 -22 -9 -18 -5
-17 21 8 18 18 30 38 28 45 -3 9 -7 6 -12 -8z"/>
<path d="M2716 1979 c-16 -16 -26 -32 -23 -36 4 -4 21 7 37 24 17 17 27 34 23
36 -5 3 -21 -8 -37 -24z"/>
<path d="M2252 1988 c-7 -7 -12 -18 -12 -26 0 -7 -3 -11 -7 -9 -8 3 -46 -32
-50 -46 -3 -12 -33 -39 -33 -31 0 4 -11 -3 -25 -16 -13 -12 -22 -27 -19 -32 6
-10 139 114 156 145 12 23 6 31 -10 15z"/>
<path d="M365 1970 c-3 -5 -2 -10 4 -10 5 0 13 5 16 10 3 6 2 10 -4 10 -5 0
-13 -4 -16 -10z"/>
<path d="M2940 1960 c-6 -11 -8 -20 -6 -20 3 0 10 9 16 20 6 11 8 20 6 20 -3
0 -10 -9 -16 -20z"/>
<path d="M1150 1935 c-19 -19 -30 -35 -24 -34 9 0 70 69 62 69 -2 0 -19 -16
-38 -35z"/>
<path d="M2095 1939 c-11 -16 -1 -19 13 -3 7 8 8 14 3 14 -5 0 -13 -5 -16 -11z"/>
<path d="M530 1894 c-25 -25 -57 -57 -72 -71 -16 -15 -28 -31 -28 -36 0 -5 35
25 77 66 42 42 75 79 72 81 -3 3 -25 -15 -49 -40z"/>
<path d="M1603 1909 c-12 -30 -11 -32 3 -17 9 8 14 23 12 33 -2 12 -7 7 -15
-16z"/>
<path d="M2665 1929 c-10 -15 3 -25 16 -12 7 7 7 13 1 17 -6 3 -14 1 -17 -5z"/>
<path d="M67 1903 c-25 -33 -16 -39 12 -9 12 13 19 26 14 29 -4 3 -16 -6 -26
-20z"/>
<path d="M2065 1910 c-3 -5 -1 -10 4 -10 6 0 11 5 11 10 0 6 -2 10 -4 10 -3 0
-8 -4 -11 -10z"/>
<path d="M2616 1881 c-15 -16 -23 -31 -18 -35 5 -3 21 8 36 23 15 16 23 31 18
35 -5 3 -21 -8 -36 -23z m34 16 c0 -2 -12 -14 -27 -28 l-28 -24 24 28 c23 25
31 32 31 24z"/>
<path d="M101 1825 c-35 -36 -58 -65 -52 -65 6 0 15 9 21 20 6 11 17 20 25 20
8 0 15 4 15 9 0 5 15 26 34 45 18 20 30 36 26 36 -3 0 -35 -29 -69 -65z"/>
<path d="M1015 1798 c-44 -45 -69 -73 -55 -63 14 11 36 31 49 45 13 14 39 42
59 63 20 20 34 37 31 37 -2 0 -40 -37 -84 -82z"/>
<path d="M1555 1870 c-3 -6 1 -7 9 -4 18 7 21 14 7 14 -6 0 -13 -4 -16 -10z"/>
<path d="M1593 1863 l-23 -15 0 -694 0 -694 25 0 25 0 0 710 c0 391 -1 710 -2
709 -2 0 -13 -7 -25 -16z m4 -1295 c-3 -8 -6 -5 -6 6 -1 11 2 17 5 13 3 -3 4
-12 1 -19z"/>
<path d="M2879 1789 c-42 -43 -74 -81 -71 -83 6 -7 130 112 144 137 19 36 2
23 -73 -54z"/>
<path d="M1880 1845 c-11 -13 -10 -14 4 -9 9 3 16 10 16 15 0 13 -6 11 -20 -6z"/>
<path d="M230 1829 c0 -5 5 -7 10 -4 6 3 10 8 10 11 0 2 -4 4 -10 4 -5 0 -10
-5 -10 -11z"/>
<path d="M686 1591 c-137 -138 -251 -258 -252 -268 -2 -16 -1 -16 9 1 19 31
295 305 301 298 3 -3 6 0 6 7 0 7 43 57 97 112 53 54 94 99 92 99 -2 0 -116
-112 -253 -249z"/>
<path d="M1166 1823 c-6 -14 -5 -15 5 -6 7 7 10 15 7 18 -3 3 -9 -2 -12 -12z"/>
<path d="M1986 1823 c-6 -14 -5 -15 5 -6 7 7 10 15 7 18 -3 3 -9 -2 -12 -12z"/>
<path d="M2543 1807 c-25 -24 -29 -37 -13 -37 6 0 9 4 8 9 -2 5 0 8 3 8 6 -2
39 29 39 37 0 12 -15 4 -37 -17z"/>
<path d="M199 1803 c-13 -16 -12 -17 4 -4 9 7 17 15 17 17 0 8 -8 3 -21 -13z"/>
<path d="M2030 1757 c-36 -34 -65 -66 -65 -72 -1 -5 -7 -9 -14 -7 -7 1 -10 -2
-7 -7 3 -5 -5 -16 -19 -25 -14 -9 -25 -22 -25 -28 0 -7 46 34 102 90 110 112
132 149 28 49z"/>
<path d="M1124 1786 c-36 -36 -39 -53 -3 -19 18 18 31 34 28 36 -2 3 -13 -5
-25 -17z"/>
<path d="M1951 1793 c-7 -8 -11 -16 -8 -19 2 -2 10 2 17 11 17 20 9 27 -9 8z"/>
<path d="M2769 1793 c-13 -16 -12 -17 4 -4 9 7 17 15 17 17 0 8 -8 3 -21 -13z"/>
<path d="M646 1773 c-6 -14 -5 -15 5 -6 7 7 10 15 7 18 -3 3 -9 -2 -12 -12z"/>
<path d="M385 1750 c-11 -16 -21 -27 -24 -25 -2 3 -11 -4 -19 -16 -25 -36 -7
-30 32 10 21 22 37 44 35 50 -2 6 -13 -2 -24 -19z"/>
<path d="M1916 1753 c-6 -14 -5 -15 5 -6 7 7 10 15 7 18 -3 3 -9 -2 -12 -12z"/>
<path d="M2495 1759 c-10 -15 3 -25 16 -12 7 7 7 13 1 17 -6 3 -14 1 -17 -5z"/>
<path d="M616 1743 c-6 -14 -5 -15 5 -6 7 7 10 15 7 18 -3 3 -9 -2 -12 -12z"/>
<path d="M140 1740 c-9 -6 -10 -10 -3 -10 6 0 15 5 18 10 8 12 4 12 -15 0z"/>
<path d="M1055 1715 c-10 -13 -24 -21 -29 -18 -5 3 -6 1 -2 -5 3 -5 0 -13 -6
-15 -7 -3 -8 -6 -2 -6 12 -1 70 57 63 63 -2 2 -13 -7 -24 -19z"/>
<path d="M2431 1695 c-24 -25 -41 -49 -37 -52 3 -4 6 0 6 7 0 7 3 11 6 7 8 -8
59 40 59 56 1 6 7 11 14 9 7 -1 10 2 6 8 -8 14 -6 15 -54 -35z m29 11 c0 -2
-8 -10 -17 -17 -16 -13 -17 -12 -4 4 13 16 21 21 21 13z"/>
<path d="M2877 1672 c-67 -68 -80 -86 -52 -76 8 4 15 10 15 16 0 14 27 38 34
31 3 -4 6 1 6 10 0 8 19 32 42 51 23 20 37 36 32 36 -5 0 -40 -30 -77 -68z"/>
<path d="M673 1693 c-45 -46 -42 -64 3 -20 20 19 35 39 33 45 -2 5 -19 -6 -36
-25z"/>
<path d="M1528 1710 c6 -8 12 -26 12 -40 0 -14 -6 -32 -12 -40 -11 -12 -10
-12 5 -1 9 7 17 26 17 41 0 15 -8 34 -17 41 -15 11 -16 11 -5 -1z"/>
<path d="M2689 1703 c-13 -16 -12 -17 4 -4 16 13 21 21 13 21 -2 0 -10 -8 -17
-17z"/>
<path d="M95 1700 c-3 -6 1 -7 9 -4 18 7 21 14 7 14 -6 0 -13 -4 -16 -10z"/>
<path d="M850 1635 c-41 -41 -71 -75 -66 -75 4 0 26 19 48 43 22 23 54 57 71
75 60 63 20 31 -53 -43z"/>
<path d="M2764 1678 c-11 -13 -27 -34 -37 -48 -9 -13 -17 -21 -17 -18 0 4 -16
-8 -35 -28 -19 -19 -35 -39 -35 -45 0 -6 -4 -7 -10 -4 -5 3 -10 -1 -10 -10 0
-9 -4 -13 -10 -10 -5 3 -10 -1 -10 -9 0 -9 -4 -15 -8 -13 -11 3 -135 -124
-127 -131 8 -9 114 100 115 117 0 8 3 11 7 7 9 -8 73 54 73 72 0 7 4 11 9 8 9
-6 111 100 111 116 0 5 5 6 10 3 6 -3 10 -1 10 4 0 18 -15 13 -36 -11z"/>
<path d="M1480 1675 c-7 -8 -8 -15 -2 -15 5 0 15 7 22 15 7 8 8 15 2 15 -5 0
-15 -7 -22 -15z"/>
<path d="M519 1643 l-24 -28 28 24 c15 14 27 26 27 28 0 8 -8 1 -31 -24z"/>
<path d="M283 1645 c0 -8 4 -12 9 -9 5 3 6 10 3 15 -9 13 -12 11 -12 -6z"/>
<path d="M1078 1620 c-14 -16 -29 -26 -33 -22 -5 4 -6 3 -3 -3 3 -5 -5 -19
-19 -30 -14 -11 -43 -40 -66 -64 -57 -60 -118 -120 -131 -129 -6 -4 -28 -26
-48 -50 -21 -23 -38 -40 -38 -36 0 3 -23 -19 -51 -48 -121 -127 -209 -215
-209 -210 0 2 -10 -7 -21 -22 -61 -78 19 -3 321 299 183 184 332 337 329 340
-3 2 -17 -9 -31 -25z"/>
<path d="M608 1629 c-10 -5 -18 -17 -18 -24 0 -8 -6 -14 -12 -12 -7 1 -12 -4
-10 -11 1 -7 -5 -15 -15 -19 -22 -9 -233 -219 -233 -233 0 -6 -4 -8 -10 -5 -5
3 -15 -5 -22 -19 -6 -14 -15 -26 -20 -26 -17 0 -60 -48 -55 -61 4 -10 8 -7 12
8 4 13 10 21 14 18 7 -4 391 378 391 389 0 8 -2 7 -22 -5z"/>
<path d="M958 1618 c-10 -10 -14 -18 -9 -18 10 0 36 29 30 34 -2 1 -12 -6 -21
-16z"/>
<path d="M2360 1625 c-18 -21 -3 -32 16 -13 10 9 12 18 6 22 -5 3 -15 -1 -22
-9z"/>
<path d="M247 1612 c-19 -20 -23 -37 -7 -27 10 6 33 45 27 45 -2 0 -11 -8 -20
-18z"/>
<path d="M1523 1603 l-23 -15 0 -564 0 -564 25 0 25 0 0 580 c0 319 -1 580 -2
579 -2 0 -13 -7 -25 -16z m4 -1105 c-3 -8 -6 -5 -6 6 -1 11 2 17 5 13 3 -3 4
-12 1 -19z"/>
<path d="M2932 1605 c-7 -8 -9 -15 -4 -15 5 0 15 7 22 15 16 19 -1 19 -18 0z"/>
<path d="M2326 1591 c-4 -5 -2 -12 3 -15 5 -4 12 -2 15 3 4 5 2 12 -3 15 -5 4
-12 2 -15 -3z"/>
<path d="M920 1579 c0 -5 5 -7 10 -4 6 3 10 8 10 11 0 2 -4 4 -10 4 -5 0 -10
-5 -10 -11z"/>
<path d="M2086 1582 c-3 -5 1 -9 9 -9 8 0 12 4 9 9 -3 4 -7 8 -9 8 -2 0 -6 -4
-9 -8z"/>
<path d="M2581 1376 c-117 -118 -209 -216 -203 -220 5 -3 15 6 22 19 7 13 17
22 22 19 4 -3 8 0 8 6 0 16 112 130 122 124 4 -3 8 -1 8 3 0 14 114 133 128
133 6 0 12 4 12 9 0 6 23 33 50 62 46 48 55 59 47 59 -1 0 -98 -96 -216 -214z"/>
<path d="M210 1571 c0 -7 -4 -9 -10 -6 -5 3 -10 -1 -10 -9 0 -9 -3 -16 -8 -16
-11 0 -92 -76 -92 -88 0 -5 30 19 67 54 37 35 64 66 60 70 -4 4 -7 2 -7 -5z"/>
<path d="M1030 1465 c-63 -63 -109 -115 -102 -115 6 0 12 5 12 11 0 5 4 8 9 5
5 -3 11 4 14 15 3 12 10 18 16 14 6 -3 11 1 11 10 0 9 5 13 10 10 6 -4 9 -1 8
7 -2 7 2 12 9 11 6 -2 21 13 33 32 12 19 31 43 43 53 25 20 62 62 56 62 -2 0
-56 -52 -119 -115z"/>
<path d="M2277 1542 c-29 -30 -33 -42 -17 -42 6 0 9 6 8 13 -2 6 3 11 10 10 6
-2 12 4 12 13 0 8 4 13 9 9 5 -3 12 -1 15 4 15 23 -13 18 -37 -7z"/>
<path d="M876 1534 c-15 -14 -26 -27 -24 -29 2 -3 17 9 33 25 35 36 30 39 -9
4z"/>
<path d="M207 1462 c-44 -45 -71 -79 -63 -79 9 0 16 7 16 14 0 8 5 11 11 8 6
-4 13 2 16 13 2 11 14 23 25 25 12 3 17 10 13 17 -4 7 1 14 13 17 11 2 23 14
25 25 3 11 10 18 15 14 5 -3 9 1 9 9 0 8 -1 15 -1 15 -1 0 -37 -35 -79 -78z"/>
<path d="M730 1515 c-13 -14 -22 -27 -19 -29 2 -2 14 10 27 25 29 36 24 38 -8
4z"/>
<path d="M2354 1498 l-19 -23 23 19 c21 18 27 26 19 26 -2 0 -12 -10 -23 -22z"/>
<path d="M2892 1449 c-34 -34 -62 -63 -62 -64 0 -7 -345 -345 -352 -345 -4 0
-8 -5 -8 -11 0 -7 -20 -30 -44 -53 -113 -106 -173 -164 -196 -192 -14 -16 -28
-29 -31 -29 -3 0 -19 -16 -35 -35 -35 -41 -152 -154 -165 -158 -5 -2 -9 -7 -9
-12 0 -4 -16 -24 -35 -43 -19 -19 -35 -34 -35 -32 0 1 -40 -39 -90 -89 -49
-51 -90 -96 -90 -102 0 -11 1197 1183 1211 1209 16 28 6 21 -59 -44z"/>
<path d="M640 1423 c-48 -50 -29 -40 28 15 18 17 30 32 25 32 -5 0 -29 -21
-53 -47z"/>
<path d="M1390 1460 c-9 -6 -10 -10 -3 -10 6 0 15 5 18 10 8 12 4 12 -15 0z"/>
<path d="M2180 1325 c-78 -80 -141 -147 -139 -149 7 -7 32 17 62 57 16 20 33
35 38 32 5 -4 9 -1 9 6 0 14 167 183 190 192 13 5 13 6 -1 6 -8 1 -80 -64
-159 -144z"/>
<path d="M1461 1443 c7 -12 15 -20 18 -17 3 2 -3 12 -13 22 -17 16 -18 16 -5
-5z"/>
<path d="M2185 1449 c-10 -15 3 -25 16 -12 7 7 7 13 1 17 -6 3 -14 1 -17 -5z"/>
<path d="M56 1424 c-18 -18 -20 -24 -6 -24 5 0 14 9 20 20 13 24 7 26 -14 4z"/>
<path d="M2755 1430 c-3 -5 -1 -10 4 -10 6 0 11 5 11 10 0 6 -2 10 -4 10 -3 0
-8 -4 -11 -10z"/>
<path d="M747 1412 c-25 -27 -21 -36 5 -12 12 11 19 22 16 25 -2 3 -12 -3 -21
-13z"/>
<path d="M2156 1421 c-4 -5 -2 -12 3 -15 5 -4 12 -2 15 3 4 5 2 12 -3 15 -5 4
-12 2 -15 -3z"/>
<path d="M1463 1380 c-11 -16 -10 -18 2 -14 8 4 15 12 15 20 0 19 -3 18 -17
-6z"/>
<path d="M2120 1385 c-18 -21 -3 -32 16 -13 10 9 12 18 6 22 -5 3 -15 -1 -22
-9z"/>
<path d="M78 1329 c-52 -57 -48 -67 7 -17 42 39 55 58 38 58 -5 0 -25 -19 -45
-41z"/>
<path d="M577 1363 c-4 -3 -7 -11 -7 -17 0 -6 5 -5 12 2 6 6 9 14 7 17 -3 3
-9 2 -12 -2z"/>
<path d="M690 1350 c-6 -11 -9 -20 -8 -20 2 0 11 9 21 20 9 11 13 20 7 20 -5
0 -14 -9 -20 -20z"/>
<path d="M2915 1346 c-13 -13 -25 -23 -27 -22 -2 0 -2 0 -2 -2 4 -7 -41 -48
-48 -45 -5 2 -8 0 -8 -5 0 -5 -25 -33 -55 -64 -30 -30 -55 -53 -55 -50 0 3
-11 -8 -23 -26 -13 -17 -27 -29 -30 -25 -4 3 -7 -1 -7 -11 0 -10 -5 -14 -12
-10 -6 4 -8 3 -5 -2 3 -6 -8 -19 -24 -29 -16 -11 -31 -27 -34 -35 -3 -8 -30
-35 -59 -60 -30 -25 -61 -58 -71 -73 -9 -16 -19 -26 -23 -23 -3 3 -16 -9 -29
-26 -12 -18 -23 -28 -23 -24 0 5 -13 -8 -29 -28 -16 -20 -33 -37 -38 -38 -4 0
-18 -15 -30 -31 -13 -17 -23 -28 -23 -24 0 4 -17 -12 -37 -35 -59 -65 -81 -86
-87 -82 -3 2 -4 1 -1 -2 2 -4 -6 -15 -18 -25 -12 -10 -17 -18 -12 -19 6 0 199
189 430 420 231 231 416 420 412 420 -4 0 -19 -11 -32 -24z"/>
<path d="M205 1338 l-20 -21 23 12 c12 6 22 16 22 21 0 13 -2 12 -25 -12z"/>
<path d="M1408 1353 c6 -2 18 -2 25 0 6 3 1 5 -13 5 -14 0 -19 -2 -12 -5z"/>
<path d="M1453 1343 l-23 -15 0 -434 0 -434 25 0 25 0 0 450 c0 248 -1 450 -2
449 -2 0 -13 -7 -25 -16z m4 -585 c-3 -8 -6 -5 -6 6 -1 11 2 17 5 13 3 -3 4
-12 1 -19z m0 -140 c-3 -7 -5 -2 -5 12 0 14 2 19 5 13 2 -7 2 -19 0 -25z"/>
<path d="M2087 1353 c-10 -9 -9 -23 1 -23 5 0 9 7 9 15 0 17 -1 18 -10 8z"/>
<path d="M2435 1340 c-3 -11 -9 -19 -13 -17 -10 3 -102 -91 -102 -104 0 -6 -4
-7 -10 -4 -5 3 -10 -2 -10 -12 0 -12 26 8 79 62 44 43 78 82 75 87 -8 12 -12
10 -19 -12z"/>
<path d="M1025 1339 c-4 -6 -5 -12 -2 -15 2 -3 7 2 10 11 7 17 1 20 -8 4z"/>
<path d="M540 1325 c-8 -9 -8 -15 -2 -15 12 0 26 19 19 26 -2 2 -10 -2 -17
-11z"/>
<path d="M820 1255 c-47 -47 -81 -85 -77 -85 4 0 26 19 47 42 22 23 40 37 40
32 0 -5 10 6 22 24 11 19 32 38 44 43 22 8 34 29 16 29 -4 0 -45 -38 -92 -85z"/>
<path d="M629 1291 c-55 -56 -58 -71 -4 -19 27 26 47 49 45 51 -3 2 -21 -12
-41 -32z"/>
<path d="M2051 1316 c-9 -11 -9 -16 1 -22 7 -4 10 -4 6 1 -4 4 -3 14 3 22 6 7
9 13 6 13 -2 0 -10 -6 -16 -14z"/>
<path d="M232 1136 c-100 -101 -182 -189 -182 -196 0 -7 14 2 30 20 17 18 30
34 30 36 0 10 109 114 120 114 6 0 9 4 6 9 -3 4 6 13 21 20 14 6 23 14 20 18
-8 7 48 63 64 63 7 0 10 3 6 6 -3 4 13 24 35 45 23 21 39 41 37 44 -3 2 -87
-78 -187 -179z"/>
<path d="M435 1218 c-44 -45 -69 -73 -56 -63 40 32 151 145 143 145 -4 0 -43
-37 -87 -82z"/>
<path d="M2017 1283 c-10 -9 -9 -23 1 -23 5 0 9 7 9 15 0 17 -1 18 -10 8z"/>
<path d="M949 1253 c-13 -16 -12 -17 4 -4 9 7 17 15 17 17 0 8 -8 3 -21 -13z"/>
<path d="M1175 1260 c-3 -5 -1 -10 4 -10 6 0 11 5 11 10 0 6 -2 10 -4 10 -3 0
-8 -4 -11 -10z"/>
<path d="M2775 1098 c-94 -94 -161 -165 -150 -157 11 8 29 24 41 36 11 13 24
20 27 18 4 -3 5 -2 2 1 -6 9 226 240 237 236 5 -1 7 2 4 7 -4 5 2 14 11 20 10
6 13 11 8 11 -6 0 -87 -77 -180 -172z"/>
<path d="M110 1240 c-9 -6 -10 -10 -3 -10 6 0 15 5 18 10 8 12 4 12 -15 0z"/>
<path d="M552 1219 c-7 -11 -11 -23 -9 -25 7 -7 29 24 25 36 -2 6 -9 1 -16
-11z"/>
<path d="M175 1197 c-6 -7 -18 -23 -28 -37 -9 -13 -17 -20 -17 -15 0 6 -8 -2
-18 -18 -10 -15 -22 -24 -27 -20 -4 5 -5 2 -1 -4 4 -8 1 -13 -7 -13 -14 0 -32
-28 -24 -36 4 -5 147 141 147 150 0 10 -14 6 -25 -7z"/>
<path d="M2223 1132 c-35 -35 -63 -69 -63 -74 0 -5 -5 -6 -12 -2 -7 4 -8 3 -4
-4 4 -7 1 -12 -8 -12 -9 0 -16 -7 -16 -16 0 -8 -4 -13 -9 -10 -10 6 -35 -21
-45 -48 -5 -16 -4 -17 9 -6 8 7 15 19 15 27 0 8 4 12 8 9 11 -7 196 179 191
192 -2 5 -32 -20 -66 -56z"/>
<path d="M2515 1190 c-3 -5 -1 -10 4 -10 6 0 11 5 11 10 0 6 -2 10 -4 10 -3 0
-8 -4 -11 -10z"/>
<path d="M517 1183 c-4 -3 -7 -11 -7 -17 0 -6 5 -5 12 2 6 6 9 14 7 17 -3 3
-9 2 -12 -2z"/>
<path d="M462 1125 c-18 -19 -29 -35 -25 -35 9 0 45 37 57 58 12 20 3 14 -32
-23z"/>
<path d="M497 932 c-125 -125 -227 -231 -227 -235 0 -4 17 10 37 32 20 22 40
38 45 35 4 -3 8 3 8 12 0 10 3 14 7 11 3 -4 16 7 28 23 12 16 25 27 28 24 3
-4 14 8 25 25 10 17 22 28 25 24 4 -3 7 1 7 11 0 11 5 15 13 10 6 -4 9 -4 6 0
-9 10 43 65 55 58 5 -3 7 -1 4 4 -3 5 0 15 8 22 8 7 14 10 14 6 0 -4 14 8 30
26 17 18 30 37 30 42 0 4 7 8 16 8 8 0 13 4 10 8 -5 8 52 67 65 67 4 0 11 3
15 8 4 4 1 7 -7 7 -8 0 -117 -103 -242 -228z"/>
<path d="M932 1128 c-17 -18 -37 -38 -44 -44 -7 -6 -23 -22 -34 -36 -12 -14
-26 -27 -30 -29 -5 -2 -21 -19 -36 -37 -16 -19 -28 -31 -28 -28 0 2 -36 -32
-80 -77 -44 -45 -80 -86 -80 -90 0 -5 -4 -6 -9 -3 -8 5 -25 -23 -18 -30 1 -2
92 87 202 196 109 110 196 202 193 205 -2 3 -19 -10 -36 -27z"/>
<path d="M2287 1082 c-37 -37 -67 -72 -67 -76 0 -5 27 19 61 55 34 35 65 63
71 61 5 -1 7 2 4 7 -4 5 0 12 6 14 7 3 8 6 3 6 -6 1 -41 -29 -78 -67z"/>
<path d="M281 1065 c-35 -36 -60 -65 -57 -65 10 0 129 121 124 126 -3 2 -33
-25 -67 -61z"/>
<path d="M1381 1109 c-13 -10 -19 -19 -14 -19 13 0 49 27 43 33 -3 3 -16 -3
-29 -14z"/>
<path d="M2075 1102 c-8 -21 -3 -22 17 -2 14 13 15 17 3 17 -8 0 -17 -7 -20
-15z"/>
<path d="M774 1078 l-19 -23 23 19 c21 18 27 26 19 26 -2 0 -12 -10 -23 -22z"/>
<path d="M1383 1080 c-22 -9 -22 -9 -23 -314 l0 -306 25 0 25 0 0 315 c0 173
-1 315 -2 314 -2 0 -13 -4 -25 -9z"/>
<path d="M391 1054 c-32 -36 -21 -39 13 -4 15 17 24 30 19 30 -5 0 -20 -12
-32 -26z"/>
<path d="M670 755 c-179 -179 -320 -325 -315 -325 6 0 16 9 23 20 7 12 17 18
23 15 5 -4 8 -3 7 2 -3 10 148 163 162 163 6 0 10 4 10 8 0 11 108 120 115
116 3 -2 3 -1 1 2 -7 10 36 54 47 47 6 -3 7 -2 4 4 -7 11 106 126 116 118 4
-3 5 -2 2 2 -7 9 25 43 42 43 7 0 13 6 13 14 0 7 19 30 42 49 23 20 40 38 37
41 -3 3 -151 -141 -329 -319z"/>
<path d="M2940 1025 c0 -8 -3 -14 -7 -13 -11 4 -103 -90 -103 -104 0 -6 -2 -9
-5 -6 -7 6 -97 -77 -95 -87 1 -4 -9 -15 -23 -24 -41 -27 -87 -75 -87 -90 0 -8
-3 -11 -7 -8 -7 7 -63 -51 -63 -65 0 -5 -4 -7 -9 -3 -5 3 -12 -4 -16 -15 -3
-11 -11 -20 -17 -20 -13 0 -88 -79 -88 -93 0 -6 -3 -8 -6 -5 -7 7 -104 -91
-104 -105 0 -6 61 50 135 124 74 73 135 140 135 148 0 8 3 11 7 8 7 -7 348
326 364 356 6 11 6 17 -1 17 -5 0 -10 -7 -10 -15z"/>
<path d="M308 971 c-23 -22 -40 -42 -38 -45 3 -2 25 16 49 40 54 55 47 58 -11
5z"/>
<path d="M1975 768 c-127 -127 -214 -218 -195 -202 20 16 55 51 80 76 24 26
47 45 52 42 4 -3 8 0 8 6 0 15 172 186 183 182 5 -1 6 1 3 6 -6 9 29 42 44 42
6 0 9 6 8 13 -2 6 4 11 12 9 8 -2 12 -1 8 3 -9 10 24 45 35 38 6 -3 7 -1 3 5
-4 7 -8 12 -9 12 -1 0 -106 -104 -232 -232z"/>
<path d="M195 980 c-3 -6 1 -7 9 -4 18 7 21 14 7 14 -6 0 -13 -4 -16 -10z"/>
<path d="M2310 979 c0 -5 5 -7 10 -4 6 3 10 8 10 11 0 2 -4 4 -10 4 -5 0 -10
-5 -10 -11z"/>
<path d="M387 930 c-50 -54 -47 -62 4 -11 23 23 40 44 37 46 -3 3 -21 -13 -41
-35z"/>
<path d="M145 930 c-16 -16 -26 -30 -22 -30 4 0 21 14 39 30 17 17 27 30 21
30 -5 0 -22 -13 -38 -30z"/>
<path d="M2534 857 c-32 -34 -46 -50 -29 -37 16 14 31 28 33 33 2 4 8 5 13 1
5 -3 9 -1 9 4 0 4 9 18 21 31 12 12 19 24 17 26 -2 3 -31 -23 -64 -58z"/>
<path d="M2924 898 l-19 -23 25 20 c14 11 27 21 29 22 2 2 0 3 -6 3 -5 0 -18
-10 -29 -22z"/>
<path d="M77 862 c-15 -15 -27 -32 -27 -38 0 -5 5 -1 11 9 6 9 16 14 22 11 7
-4 9 -3 4 1 -4 5 0 17 10 27 26 29 9 21 -20 -10z"/>
<path d="M331 883 c-1 -7 -20 -29 -42 -50 -23 -21 -60 -58 -83 -82 -94 -100
-126 -131 -135 -131 -5 0 -11 -7 -15 -15 -3 -8 -2 -15 2 -15 17 0 284 279 279
292 -4 9 -6 9 -6 1z"/>
<path d="M194 856 c-10 -8 -16 -17 -13 -20 3 -3 14 3 24 14 21 23 17 26 -11 6z"/>
<path d="M1322 854 c-7 -8 -8 -14 -3 -14 10 0 25 19 20 25 -2 1 -10 -3 -17
-11z"/>
<path d="M2487 462 c-224 -224 -407 -410 -407 -413 0 -3 41 35 91 85 50 50 95
91 100 91 5 0 9 4 8 8 -1 12 50 57 63 57 6 0 8 3 4 7 -9 9 95 114 106 107 5
-3 7 -1 6 4 -4 13 153 168 166 164 6 -2 8 0 3 4 -10 11 54 75 67 67 6 -3 8 -2
4 2 -5 5 42 57 102 117 61 59 107 108 103 108 -5 0 -191 -183 -416 -408z"/>
<path d="M1897 795 c-31 -30 -57 -58 -57 -62 0 -4 27 19 60 52 55 55 64 65 57
65 -1 0 -28 -25 -60 -55z"/>
<path d="M1278 833 c7 -3 16 -2 19 1 4 3 -2 6 -13 5 -11 0 -14 -3 -6 -6z"/>
<path d="M842 807 c-12 -13 -22 -27 -22 -32 0 -4 11 4 26 20 14 15 23 29 21
31 -2 2 -13 -6 -25 -19z"/>
<path d="M1313 820 c-21 -9 -22 -14 -25 -185 l-3 -175 28 0 27 0 0 185 c0 102
-1 185 -2 184 -2 0 -13 -4 -25 -9z"/>
<path d="M2935 790 c-10 -11 -13 -20 -8 -20 13 0 38 29 31 35 -3 3 -13 -4 -23
-15z"/>
<path d="M120 785 c-7 -8 -8 -15 -2 -15 5 0 15 7 22 15 7 8 8 15 2 15 -5 0
-15 -7 -22 -15z"/>
<path d="M2429 753 l-34 -38 40 35 c22 19 42 36 44 38 2 1 0 2 -5 2 -6 0 -26
-17 -45 -37z"/>
<path d="M779 744 c-23 -25 -23 -26 -2 -13 13 7 25 19 27 26 8 19 2 16 -25
-13z"/>
<path d="M1030 749 c0 -5 5 -7 10 -4 6 3 10 8 10 11 0 2 -4 4 -10 4 -5 0 -10
-5 -10 -11z"/>
<path d="M531 726 c-7 -13 -24 -29 -37 -36 -13 -7 -21 -16 -19 -20 3 -4 -5
-15 -18 -23 -32 -21 -137 -128 -137 -139 0 -5 -4 -6 -10 -3 -5 3 -10 0 -10 -7
0 -7 -13 -22 -29 -33 -16 -10 -28 -22 -26 -25 1 -3 -3 -11 -11 -18 -8 -7 -14
-10 -14 -6 0 3 -15 -12 -33 -33 -17 -21 -51 -56 -75 -77 -24 -22 -48 -49 -54
-60 -6 -12 105 94 246 234 141 140 256 258 256 262 0 16 -17 7 -29 -16z"/>
<path d="M952 675 c-34 -36 -62 -62 -62 -58 0 4 -8 -4 -18 -20 -10 -15 -21
-25 -24 -22 -9 9 -30 -23 -25 -37 4 -8 8 -5 12 9 4 13 11 21 15 18 7 -4 170
157 170 169 0 11 -6 6 -68 -59z"/>
<path d="M2855 710 c-3 -6 1 -7 9 -4 18 7 21 14 7 14 -6 0 -13 -4 -16 -10z"/>
<path d="M626 590 c-66 -66 -118 -121 -115 -124 2 -2 59 52 127 120 67 68 119
124 114 124 -4 0 -61 -54 -126 -120z"/>
<path d="M2325 650 c-33 -33 -56 -60 -53 -60 10 0 121 111 116 116 -2 2 -31
-23 -63 -56z"/>
<path d="M215 650 c-22 -22 -34 -40 -27 -40 7 0 15 7 18 15 4 8 12 15 20 15 8
0 14 6 14 14 0 8 6 16 13 19 6 2 9 7 6 10 -3 4 -23 -11 -44 -33z"/>
<path d="M2007 683 c-4 -3 -7 -11 -7 -17 0 -6 5 -5 12 2 6 6 9 14 7 17 -3 3
-9 2 -12 -2z"/>
<path d="M2898 633 c-31 -32 -64 -65 -75 -74 -10 -9 -63 -63 -119 -120 -55
-57 -121 -123 -145 -145 -82 -77 -252 -254 -244 -254 11 0 624 610 636 633 16
28 6 20 -53 -40z"/>
<path d="M821 663 c-7 -8 -11 -16 -8 -19 2 -2 10 2 17 11 17 20 9 27 -9 8z"/>
<path d="M742 357 c-166 -167 -302 -307 -302 -313 0 -5 5 -1 11 9 6 9 14 15
20 12 5 -4 9 1 9 9 0 8 20 29 45 46 25 17 45 38 45 46 0 8 4 13 9 10 4 -3 19
6 31 19 13 14 19 25 14 25 -5 1 4 8 19 16 15 8 25 19 22 25 -4 5 2 12 12 16
18 7 49 33 39 33 -3 0 2 8 12 18 9 11 20 17 23 16 4 -2 14 5 24 16 10 11 15
20 11 20 -3 0 6 14 21 30 14 17 33 30 40 30 8 0 12 4 9 9 -8 12 29 43 39 34 4
-5 5 -2 1 5 -4 7 -1 12 8 12 8 0 21 10 27 23 15 27 56 67 70 67 6 0 8 4 4 9
-3 6 0 13 7 18 14 9 43 43 37 43 -2 0 -140 -136 -307 -303z"/>
<path d="M114 548 c-28 -29 -57 -62 -65 -72 -14 -19 -13 -19 14 -2 15 10 27
22 27 27 0 15 43 59 57 59 8 0 11 5 8 10 -3 6 4 14 17 19 13 6 17 10 8 10 -9
1 -38 -23 -66 -51z"/>
<path d="M1905 579 c-4 -6 -5 -12 -2 -15 2 -3 7 2 10 11 7 17 1 20 -8 4z"/>
<path d="M2000 323 c-140 -141 -246 -250 -235 -242 11 8 67 62 126 121 58 59
109 104 113 100 4 -4 6 -2 4 4 -2 7 55 69 125 139 71 70 127 128 125 130 -2 3
-118 -111 -258 -252z"/>
<path d="M2907 520 c-26 -27 -47 -47 -47 -45 0 3 -8 -3 -18 -12 -11 -10 -18
-20 -18 -23 1 -3 -47 -53 -106 -111 -60 -58 -108 -104 -108 -103 0 2 -19 -17
-42 -42 -24 -25 -65 -68 -93 -96 -27 -28 -41 -46 -30 -40 23 12 515 504 515
515 0 12 -4 9 -53 -43z"/>
<path d="M705 550 c-3 -5 -1 -10 4 -10 6 0 11 5 11 10 0 6 -2 10 -4 10 -3 0
-8 -4 -11 -10z"/>
<path d="M751 477 c-30 -31 -52 -59 -50 -62 7 -7 112 102 108 111 -2 5 -28
-17 -58 -49z"/>
<path d="M1026 513 c-6 -14 -5 -15 5 -6 7 7 10 15 7 18 -3 3 -9 -2 -12 -12z"/>
<path d="M2075 510 c-4 -11 -11 -17 -17 -14 -6 4 -9 3 -6 -2 3 -5 -12 -22 -33
-39 -21 -16 -38 -36 -39 -43 0 -7 -4 -11 -9 -8 -8 6 -25 -23 -18 -30 2 -2 36
30 76 70 41 41 68 76 63 80 -6 3 -13 -3 -17 -14z"/>
<path d="M661 509 c-1 -9 -11 -24 -23 -32 -13 -9 -18 -16 -12 -16 17 -1 47 36
41 51 -4 9 -6 8 -6 -3z"/>
<path d="M1117 489 c-4 -14 -10 -18 -19 -13 -7 4 -10 4 -7 0 6 -7 -51 -74 -61
-72 -3 1 -21 -15 -41 -36 -21 -21 -35 -38 -33 -38 3 0 -11 -14 -31 -31 -61
-54 -103 -98 -97 -104 3 -3 1 -5 -4 -5 -10 0 -81 -67 -134 -125 -20 -23 -21
-26 -5 -17 35 19 458 449 447 456 -5 3 -12 -4 -15 -15z"/>
<path d="M176 485 c-11 -8 -15 -15 -9 -15 6 0 16 7 23 15 16 19 11 19 -14 0z"/>
<path d="M2615 470 c-3 -5 -1 -10 4 -10 6 0 11 5 11 10 0 6 -2 10 -4 10 -3 0
-8 -4 -11 -10z"/>
<path d="M417 382 c-42 -43 -77 -80 -77 -83 0 -4 36 29 81 73 44 44 79 81 77
84 -2 2 -39 -31 -81 -74z"/>
<path d="M1770 445 c-7 -9 -8 -15 -2 -15 5 0 12 7 16 15 3 8 4 15 2 15 -2 0
-9 -7 -16 -15z"/>
<path d="M2911 416 c-24 -24 -41 -50 -38 -58 3 -8 9 -2 16 15 6 16 16 25 21
22 6 -4 9 -2 8 3 -2 5 8 19 21 31 13 12 22 23 19 26 -2 2 -24 -15 -47 -39z"/>
<path d="M590 435 c-7 -9 -11 -17 -8 -20 2 -2 12 4 21 15 9 11 13 20 8 20 -5
0 -14 -7 -21 -15z"/>
<path d="M1165 431 c-3 -5 -2 -12 3 -15 5 -3 9 1 9 9 0 17 -3 19 -12 6z"/>
<path d="M641 371 c-24 -27 -48 -55 -52 -63 -5 -7 -9 -10 -9 -7 0 4 -16 -8
-36 -26 -20 -19 -34 -39 -31 -47 4 -8 6 -7 6 5 1 10 5 16 9 13 10 -6 142 128
142 144 0 6 5 8 10 5 6 -3 10 1 10 9 0 9 -1 16 -3 16 -1 0 -22 -22 -46 -49z"/>
<path d="M552 394 c-7 -8 -8 -14 -3 -14 10 0 25 19 20 25 -2 1 -10 -3 -17 -11z"/>
<path d="M1117 382 c-29 -30 -33 -42 -17 -42 6 0 9 5 8 12 -2 7 2 12 9 13 15
0 26 12 29 30 3 20 2 19 -29 -13z"/>
<path d="M1288 205 l3 -205 24 0 25 0 0 205 0 205 -27 0 -28 0 3 -205z"/>
<path d="M1360 205 l0 -205 25 0 25 0 0 205 0 205 -25 0 -25 0 0 -205z"/>
<path d="M1430 205 l0 -205 25 0 25 0 0 205 0 205 -25 0 -25 0 0 -205z"/>
<path d="M1500 205 l0 -205 25 0 25 0 0 205 0 205 -25 0 -25 0 0 -205z"/>
<path d="M1570 205 l0 -205 25 0 25 0 0 205 0 205 -25 0 -25 0 0 -205z"/>
<path d="M182 267 c-73 -74 -132 -139 -132 -145 0 -20 7 -14 29 24 12 19 25
33 30 30 5 -3 11 4 14 15 3 11 15 23 26 26 12 3 21 10 21 16 0 14 102 113 113
109 5 -1 6 2 2 8 -3 5 9 19 27 30 18 11 26 20 18 20 -9 0 -75 -60 -148 -133z"/>
<path d="M2291 374 c0 -11 3 -14 6 -6 3 7 2 16 -1 19 -3 4 -6 -2 -5 -13z"/>
<path d="M2515 370 c-3 -5 -1 -10 4 -10 6 0 11 5 11 10 0 6 -2 10 -4 10 -3 0
-8 -4 -11 -10z"/>
<path d="M1930 361 c0 -7 -4 -9 -10 -6 -5 3 -10 -1 -10 -10 0 -9 -4 -13 -10
-10 -5 3 -10 2 -10 -3 0 -5 -9 -19 -20 -32 -11 -13 -20 -20 -20 -16 0 4 -12
-7 -27 -26 -15 -18 -39 -43 -52 -55 -14 -12 -23 -24 -20 -27 3 -3 47 37 99 89
52 52 91 98 87 101 -4 4 -7 2 -7 -5z"/>
<path d="M2267 364 c-4 -4 -7 -14 -7 -23 0 -11 3 -12 11 -4 6 6 10 16 7 23 -2
6 -7 8 -11 4z"/>
<path d="M2830 335 c-13 -14 -18 -25 -12 -25 7 0 12 5 12 11 0 5 4 8 9 5 5 -3
12 1 15 10 10 26 1 26 -24 -1z"/>
<path d="M1047 310 c-16 -15 -24 -31 -19 -34 10 -6 55 41 50 54 -2 5 -16 -4
-31 -20z"/>
<path d="M2188 278 c-32 -32 -58 -63 -58 -69 0 -6 -4 -7 -10 -4 -5 3 -10 -2
-10 -11 0 -10 -3 -15 -6 -11 -7 6 -35 -18 -34 -29 1 -3 -7 -12 -17 -19 -10 -7
-16 -16 -13 -19 8 -7 213 200 209 211 -2 5 -30 -17 -61 -49z"/>
<path d="M2450 305 c-8 -9 -8 -15 -2 -15 12 0 26 19 19 26 -2 2 -10 -2 -17
-11z"/>
<path d="M2742 247 c-52 -53 -61 -67 -41 -67 5 0 8 3 6 8 -6 9 19 33 27 25 3
-3 10 6 16 21 5 15 16 29 24 32 12 5 32 34 23 34 -2 0 -26 -24 -55 -53z"/>
<path d="M310 275 c-7 -9 -11 -17 -9 -20 3 -2 10 5 17 15 14 24 10 26 -8 5z"/>
<path d="M1027 172 c-64 -65 -117 -120 -117 -124 0 -3 46 40 102 95 56 56 105
101 110 99 5 -1 7 2 4 7 -4 5 2 14 11 20 10 5 15 12 12 15 -3 3 -58 -47 -122
-112z"/>
<path d="M995 261 c-6 -11 9 -23 19 -14 9 9 7 23 -3 23 -6 0 -12 -4 -16 -9z"/>
<path d="M400 245 c-8 -9 -8 -15 -2 -15 12 0 26 19 19 26 -2 2 -10 -2 -17 -11z"/>
<path d="M187 152 c-53 -53 -97 -100 -97 -104 0 -6 129 120 179 175 55 60 10
21 -82 -71z"/>
<path d="M947 212 c-29 -30 -33 -42 -17 -42 6 0 10 7 10 15 0 8 5 14 12 13 7
-2 13 4 13 12 1 8 7 14 14 12 7 -1 10 2 6 8 -8 13 -8 14 -38 -18z"/>
<path d="M456 179 c-21 -22 -36 -42 -34 -44 2 -3 22 13 43 35 21 22 36 42 33
45 -2 3 -22 -13 -42 -36z"/>
<path d="M2915 185 c-22 -19 -35 -35 -30 -35 6 -1 -2 -8 -17 -16 -16 -8 -28
-22 -28 -30 0 -8 -4 -13 -8 -10 -5 3 -19 -8 -31 -25 -38 -51 5 -20 80 58 90
94 106 121 34 58z"/>
<path d="M2349 193 c-13 -16 -12 -17 4 -4 16 13 21 21 13 21 -2 0 -10 -8 -17
-17z"/>
<path d="M319 160 c-18 -16 -31 -31 -28 -33 2 -3 19 11 38 29 42 42 34 45 -10
4z"/>
<path d="M2637 142 c-25 -25 -32 -39 -22 -39 8 0 15 7 15 14 0 9 5 11 13 7 6
-4 9 -3 4 1 -4 5 3 19 15 32 36 39 15 26 -25 -15z"/>
<path d="M895 159 c-10 -15 3 -25 16 -12 7 7 7 13 1 17 -6 3 -14 1 -17 -5z"/>
<path d="M2285 140 c-3 -5 -1 -10 4 -10 6 0 11 5 11 10 0 6 -2 10 -4 10 -3 0
-8 -4 -11 -10z"/>
<path d="M635 130 c-3 -5 -1 -10 4 -10 6 0 11 5 11 10 0 6 -2 10 -4 10 -3 0
-8 -4 -11 -10z"/>
<path d="M861 126 c-7 -8 -8 -17 -3 -20 6 -3 15 1 21 8 7 8 8 17 3 20 -6 3
-15 -1 -21 -8z"/>
<path d="M377 101 c-14 -16 -34 -34 -44 -39 -10 -6 -15 -14 -11 -17 4 -4 26
11 50 33 23 22 40 43 37 46 -3 3 -17 -7 -32 -23z"/>
<path d="M1992 82 c-18 -19 -31 -36 -29 -39 7 -6 69 56 65 65 -2 4 -18 -8 -36
-26z"/>
<path d="M236 72 l-19 -27 24 22 c12 12 21 24 18 27 -2 2 -13 -8 -23 -22z"/>
<path d="M827 93 c-10 -9 -9 -23 1 -23 5 0 9 7 9 15 0 17 -1 18 -10 8z"/>
<path d="M2920 75 c-13 -14 -22 -26 -19 -28 2 -1 16 10 31 25 15 15 23 28 19
28 -4 0 -18 -11 -31 -25z"/>
<path d="M2567 72 c-10 -10 -17 -22 -17 -27 0 -4 8 1 18 12 9 11 24 22 32 26
13 5 13 6 -1 6 -9 1 -23 -7 -32 -17z"/>
<path d="M2220 70 c-9 -6 -10 -10 -3 -10 6 0 15 5 18 10 8 12 4 12 -15 0z"/>
<path d="M795 59 c-4 -6 -5 -12 -2 -15 2 -3 7 2 10 11 7 17 1 20 -8 4z"/>
</g>
</svg>
